<?xml version="1.0" encoding="UTF-8"?><svg id="Layer_1" xmlns="http://www.w3.org/2000/svg" width="400" height="400" viewBox="0 0 400 400"><defs><style>.cls-1{fill:#fff;}.cls-2{fill:#3c2415;}</style></defs><path class="cls-2" d="m335.65,111.46c22.2,47.23-33.74,133.98-137.61,219.18C96.13,243.37,41.7,155.55,64.8,108.37c11.35-23.19,45.85-45.6,78.69-37.2,26.85,6.87,47.93,33.15,54.55,66.96,8.23-33.43,30.52-58.86,58.13-65.1,33.64-7.6,68.37,14.8,79.48,38.43Z"/><path class="cls-1" d="m326.18,114.6c13.14,26.6-2.12,59.19-5.65,58.78-2.79-.32,3.13-21.08-7.13-47.73-9.61-24.98-26.17-36.25-23.96-38.75,2.45-2.77,26.45,6.85,36.74,27.7Z"/><path class="cls-1" d="m169.09,210.2c.19,1.1-11.49,1.18-19.76,8.54-9.54,8.5-10.03,22.66-11.21,22.43-1.35-.27,4.93-17.64-2.67-26.17-6.67-7.48-21.38-5.17-21.36-5.87.02-.69,14.11,2.64,22.43-4.27,9.07-7.55,7.42-24.1,8.54-24.03,1.25.08-2.78,20.38,6.41,27.23,6.58,4.91,17.44,1.05,17.62,2.14Z"/></svg>