<?xml version="1.0" encoding="UTF-8"?><svg id="Layer_1" xmlns="http://www.w3.org/2000/svg" width="400" height="400" viewBox="0 0 400 400"><defs><style>.cls-1{fill:#fff;}.cls-2{fill:#f1f2f2;}.cls-3{fill:#7a513e;}</style></defs><path class="cls-3" d="m335.65,111.46c22.2,47.23-33.74,133.98-137.61,219.18C96.13,243.37,41.7,155.55,64.8,108.37c11.35-23.19,45.85-45.6,78.69-37.2,26.85,6.87,47.93,33.15,54.55,66.96,8.23-33.43,30.52-58.86,58.13-65.1,33.64-7.6,68.37,14.8,79.48,38.43Z"/><path class="cls-1" d="m328.12,110.68c13.14,26.6-2.12,59.19-5.65,58.78-2.79-.32,3.13-21.08-7.13-47.73-9.61-24.98-26.17-36.25-23.96-38.75,2.45-2.77,26.45,6.85,36.74,27.7Z"/><path class="cls-1" d="m171.04,206.28c.19,1.1-11.49,1.18-19.76,8.54-9.54,8.5-10.03,22.66-11.21,22.43-1.35-.27,4.93-17.64-2.67-26.17-6.67-7.48-21.38-5.17-21.36-5.87.02-.69,14.11,2.64,22.43-4.27,9.07-7.55,7.42-24.1,8.54-24.03,1.25.08-2.78,20.38,6.41,27.23,6.58,4.91,17.44,1.05,17.62,2.14Z"/><path class="cls-2" d="m198.53,285.47c7.18,5.56,13.84,11.75,19.93,18.49.58.64,3.32-.39,2.71-1.06-6.08-6.74-12.75-12.93-19.93-18.49-.71-.55-3.34.58-2.71,1.06h0Z"/><path class="cls-2" d="m191.18,297.32c1.16-3.63,2.34-7.29,4.25-10.61s4.76-6,8.15-7.92c6.27-3.55,13.49-5.13,19.3-9.54,3.01-2.28,5.52-5.19,6.59-8.87.19-.65-2.64-.28-2.86.49-2.05,7.06-9,10.64-15.32,13.24-6.69,2.75-13.67,5.47-17.87,11.72-2.44,3.63-3.79,7.85-5.1,11.98-.2.63,2.62.28,2.86-.49h0Z"/><path class="cls-2" d="m219.68,283c-2.01.59-3.45,2.31-3.37,4.45.07,1.96,1.23,4.1,2.58,5.49,1.47,1.52,3.67,2.01,5.62,1.12.93-.42,1.68-1.16,1.96-2.16.26-.92.02-1.94-.34-2.8-.93-2.26-2.41-4.36-4.01-6.18l-2.67,1.21c1.96,1.93,4.16,3.96,7.04,4.2,2.4.2,5.46-.83,6.4-3.26.56-1.44-2.33-1.24-2.74-.2-.25.65-.65,1.13-1.22,1.38-.21.09-.52.17-.77.19-.34.03-.64.02-.99-.05-2.02-.4-3.65-2.09-5.06-3.47-.5-.49-1.35-.39-1.94-.12-.42.19-1.19.8-.73,1.33,1.35,1.54,2.54,3.23,3.46,5.06.38.75.79,1.65.73,2.51-.02.33-.1.69-.36.91.03-.03.25-.02-.11.02.13-.02-.07-.02-.13-.03-1.54-.18-2.68-2.3-3.24-3.54-.4-.88-.7-1.88-.52-2.85.09-.48.41-1.37.86-1.5.51-.15,1.38-.58,1.22-1.25s-1.21-.61-1.68-.47h0Z"/><path class="cls-2" d="m226.37,276.66c2.19,2.61,4.69,4.92,7.46,6.91.53.38,3.19-.49,2.73-.98-1.66-1.75-3.08-3.73-4.17-5.88-.5-.99-.94-2.08-.86-3.21.04-.56.23-1.14.59-1.57.07-.1.16-.19.25-.26.3-.19.18-.17-.37.05.09.06.43,0,.55.03,2.2.33,3.67,2.34,5.6,3.27,2.04.98,4.56.8,6.46-.43.46-.3.37-.57-.16-.61-.65-.05-1.51.2-2.05.55-.33.19-.25.19.26-.02-.12,0-.24,0-.36-.02-.23-.03-.47-.09-.69-.16-.56-.17-1.08-.46-1.57-.78-1.02-.66-1.91-1.48-2.96-2.1-2.04-1.2-4.73-1.18-6.76.06-2.23,1.37-1.84,3.95-.82,5.98,1.13,2.23,2.62,4.26,4.34,6.08l2.73-.98c-2.77-1.99-5.27-4.3-7.46-6.91-.44-.53-3.15.48-2.73.98h0Z"/><path class="cls-2" d="m245.57,259.14c-2.68.14-5.14,1.78-5.31,4.63-.15,2.52,1.25,5.24,3.83,5.86,2.25.54,5.26-.34,6.22-2.61,1.1-2.62-.84-5.11-2.45-6.98-.55-.64-3.32.28-2.71,1.07,2.71,3.54,7.94,5.79,8.74,10.57.76,4.57-3.93,8.99-7.9,10.3-.35.12-1.43.44-1.28,1,.14.53,1.3.33,1.61.23,4.6-1.52,10.12-5.37,10.53-10.68.45-5.79-5.98-8.56-8.99-12.49l-2.71,1.07c1.03,1.2,2.13,2.46,2.46,4.06.2.96.08,3.42-1.4,3.12s-2.52-1.92-2.88-3.33c-.2-.8-.26-1.64-.08-2.45.09-.41.57-1.88,1.14-1.91s1.62-.19,1.92-.75-.25-.73-.74-.7h0Z"/><path class="cls-2" d="m254.59,254.67c.99-.94,2.1-2.01,2.34-3.41.21-1.24-.26-2.55-1.53-2.98-1.48-.5-3.43.11-4.68.92-1.08.7-1.85,1.79-2.13,3.05-.54,2.38.46,4.95,2.6,6.18,2.55,1.48,6,1.09,8.53-.24,2.8-1.47,4.49-4.29,4.65-7.43.02-.45-2.85-.1-2.9.78-.1,2.09-.98,4.18-2.55,5.59-.31.28-.66.53-1.03.73-.4.21-.42.21-.83.26-.75.1-1.71-.06-2.48-.36-1.85-.74-3.04-2.46-3.22-4.42-.09-.93.06-1.86.48-2.7.2-.4.44-.76.76-1.06.11-.11.24-.19.36-.29.28-.21.05-.02-.08,0s-.27-.04-.18.04c.04.03.22.05.28.07.14.06.29.16.41.26.21.17.36.39.47.64.22.49.27,1.08.16,1.61-.25,1.22-1.22,2.13-2.08,2.95-.48.45.42.52.69.5.63-.04,1.46-.24,1.94-.7h0Z"/></svg>